<?xml version="1.0" encoding="utf-8"?>
<!-- Generator: Adobe Illustrator 19.0.0, SVG Export Plug-In . SVG Version: 6.00 Build 0)  -->
<svg version="1.1" id="Group_1_1_" xmlns="http://www.w3.org/2000/svg" xmlns:xlink="http://www.w3.org/1999/xlink" x="0px" y="0px"
	 viewBox="0 0 134 26" style="enable-background:new 0 0 134 26;" xml:space="preserve">
<style type="text/css">
	.st0{fill-rule:evenodd;clip-rule:evenodd;fill:#FFFFFF;}
</style>
<g id="Rectangle_1">
	<g>
		<rect x="59" y="13" class="st0" width="75" height="1"/>
	</g>
</g>
<g id="Shape_1">
	<g>
		<path class="st0" d="M49.2,6.2c-0.4-0.5-1-1-1.4-1.5c-1-1.3-2.7-3.1-4.1-3.9V0.7c-0.6,0.7-1,1.7-1.5,2.5c-1.8,2.5-5.3,5-9.5,3.7
			C31.7,6.6,31,6.5,30.4,6c-0.3-0.4-0.2-1.2-0.4-1.6c0.1-0.6,0.6-1.1,0.8-1.7c0.3-0.8,0-1.9-0.1-2.6c-1.4-0.3-2.6,0.5-3.1,1.3
			c-0.4-0.1-1.4-0.3-1.8,0C24.4,1.3,24.3,0,22.2,0c-0.1,0.1,0,0-0.2,0.1c-0.2,1.6-0.2,3.5,0.9,4.2c0,0.3-0.1,0.9-0.3,1.2
			c0,1.4-3.9,2.4-5.8,2C13.3,6.5,10.7,3.7,9,0.8C8.2,1.1,6.4,3.4,5.8,4.1c-0.4,0.6-1,1.1-1.4,1.7c-1.5,2.1-2.5,4.3-3.5,7
			c-0.4,1-0.8,2.2-0.9,3.4c1.1-0.3,2.2-0.8,3.2-1.2c0.9-0.3,1.9-0.3,2.7-0.5c0.7,0,1.4-0.1,2.2-0.1c3.9,0,7.4,1.8,8.2,4.8
			c0.4-0.1,0.5-0.4,0.8-0.6c0.6-0.4,1.4-0.7,2.1-0.9c1.2-0.3,2.3,0.3,2.9,0.7c1.8,1.2,3.8,4.9,4.1,7.5h0.1c0.6-3.1,2-6.5,4.3-8
			c1.8-1.1,4.8-0.3,5.7,1.1c0.3-0.5,0.7-1.1,1-1.5c0.5-0.7,1.4-1.4,2.2-1.9C42.1,14,47,14.5,50,15.4c0.9,0.3,2.1,0.4,2.8,1H53
			C53,11.8,51.2,8.9,49.2,6.2z"/>
	</g>
</g>
</svg>
